<svg width="500" height="430" viewBox="0 0 500 430" fill="none" xmlns="http://www.w3.org/2000/svg">
<path d="M397.461 0H102.539C45.9902 0 0 39.5718 0 88.1836C0 96.0546 0 304.661 0 315.781C0 322.739 6.55859 328.379 14.6484 328.379C18.9521 328.379 480.123 328.379 485.352 328.379C493.441 328.379 500 322.739 500 315.781C500 313.414 500 94.3472 500 88.1827C499.999 39.5499 453.983 0 397.461 0ZM29.2969 88.1836C29.2969 67.6209 40.8164 49.3307 58.5938 37.8274C58.5938 46.3401 58.5938 226.799 58.5938 236.118C49.4834 232.386 39.6367 229.78 29.2969 228.501C29.2969 213.224 29.2969 105.599 29.2969 88.1836ZM29.2969 303.184V254.059C57.9512 259.082 80.5781 278.541 86.4189 303.184H29.2969ZM412.109 254.133C397.229 267.206 387.03 284.23 383.863 303.184H116.137C112.971 284.23 102.771 267.206 87.8906 254.133V177.207H176.758V189.805C176.758 224.536 209.614 252.793 250 252.793C290.386 252.793 323.242 224.536 323.242 189.805V177.207H412.109V254.133ZM250 202.402C258.09 202.402 264.648 196.762 264.648 189.805V177.207H293.945V189.805C293.945 210.644 274.231 227.598 250 227.598C225.769 227.598 206.055 210.644 206.055 189.805V177.207H235.352V189.805C235.352 196.762 241.91 202.402 250 202.402ZM412.109 152.012C372.298 152.012 120.284 152.012 87.8906 152.012V126.816H412.109V152.012ZM412.109 101.621H87.8906V26.4626C92.625 25.6329 97.5234 25.1953 102.539 25.1953H397.461C402.477 25.1953 407.375 25.6329 412.109 26.4626V101.621ZM470.703 303.184H413.581C419.422 278.541 442.049 259.082 470.703 254.059V303.184ZM470.703 228.501C460.363 229.779 450.517 232.386 441.406 236.118C441.406 226.223 441.406 46.7138 441.406 37.8274C459.184 49.3307 470.703 67.6209 470.703 88.1836C470.703 105.602 470.703 213.236 470.703 228.501Z" transform="translate(0 101.621)" fill="white"/>
<path d="M14.6484 0C6.55859 0 0 5.64039 0 12.5977V51.2305C0 58.1877 6.55859 63.8281 14.6484 63.8281C22.7383 63.8281 29.2969 58.1877 29.2969 51.2305V12.5977C29.2969 5.64039 22.7383 0 14.6484 0Z" transform="translate(235.352)" fill="white"/>
<path d="M54.3032 28.8852L25.0063 3.68985C19.2866 -1.22995 10.0112 -1.22995 4.29052 3.68985C-1.43018 8.60966 -1.43018 16.5857 4.29052 21.5055L33.5874 46.7008C39.3071 51.6206 48.5825 51.6206 54.3032 46.7008C60.0239 41.781 60.0239 33.805 54.3032 28.8852Z" transform="translate(147.461 26.0355)" fill="white"/>
<path d="M54.3032 3.68985C48.5835 -1.22995 39.3081 -1.22995 33.5874 3.68985L4.29053 28.8852C-1.43017 33.805 -1.43017 41.781 4.29053 46.7008C10.0112 51.6197 19.2866 51.6206 25.0063 46.7008L54.3032 21.5055C60.0239 16.5857 60.0239 8.60966 54.3032 3.68985Z" transform="translate(293.945 26.0355)" fill="white"/>
</svg>
