<svg width="500" height="430" viewBox="0 0 500 430" fill="none" xmlns="http://www.w3.org/2000/svg">
<path d="M218.75 62.9269H166.667V10.4881C166.667 4.69593 162.003 0 156.25 0H72.9171C67.1642 0 62.5001 4.69593 62.5001 10.4881V62.9269H10.417C4.66407 62.9269 7.27178e-06 67.6228 7.27178e-06 73.415V157.317C7.27178e-06 163.109 4.66407 167.805 10.417 167.805H62.5001V220.244C62.5001 226.036 67.1642 230.732 72.9171 230.732H156.25C162.003 230.732 166.667 226.036 166.667 220.244V167.805H218.75C224.503 167.805 229.167 163.109 229.167 157.317V73.415C229.166 67.6228 224.503 62.9269 218.75 62.9269ZM208.333 146.829H156.25C150.497 146.829 145.833 151.525 145.833 157.317V209.756H83.3332V157.317C83.3332 151.525 78.6691 146.829 72.9162 146.829H20.833V83.9022H72.9162C78.6691 83.9022 83.3332 79.2062 83.3332 73.414V20.9753H145.833V73.414C145.833 79.2062 150.497 83.9022 156.25 83.9022H208.333V146.829Z" transform="translate(135.417 136.342)" fill="white"/>
<path d="M440.012 73.415H333.334V43.3989C333.334 19.466 313.646 1.80035e-07 289.448 1.80035e-07H206.823C183.552 1.80035e-07 166.666 18.2488 166.666 43.3989V73.415H59.9894C26.8721 73.4494 0.0341798 100.471 0 133.814V369.601C0.0341798 402.944 26.8721 429.966 59.9894 430H440.011C473.128 429.966 499.966 402.944 500 369.601V133.814C499.967 100.472 473.129 73.4494 440.012 73.415ZM187.5 43.3989C187.5 32.2402 193.469 20.9763 206.824 20.9763H289.449C302.157 20.9763 312.501 31.0338 312.501 43.3989V73.415H187.5V43.3989ZM479.168 369.57C479.162 391.345 461.64 409.001 440.012 409.025H59.9894C38.3731 409.002 20.8565 391.365 20.833 369.601V133.814C20.8565 112.05 38.3731 94.4139 59.9894 94.3903H440.011C461.627 94.4139 479.144 112.05 479.167 133.814V369.57H479.168Z" fill="white"/>
</svg>
