<svg width="508" height="426" viewBox="0 0 508 426" fill="none" xmlns="http://www.w3.org/2000/svg">
<g filter="url(#filter0_d)">
<path d="M9.67531 70.8265C6.12302 70.8265 3.59903 68.83 2.10333 64.8369C0.701109 60.8439 -1.85731e-07 54.455 -1.85731e-07 45.6703C-1.85731e-07 32.693 1.7294 20.3645 5.18821 8.68486C6.02954 5.78991 7.38502 3.69356 9.25464 2.39582C11.2177 0.998262 13.9287 0.299482 17.3875 0.299482C19.2571 0.299482 20.5659 0.54904 21.3137 1.04817C22.0616 1.5473 22.4355 2.49564 22.4355 3.89321C22.4355 5.49042 21.7344 9.08416 20.3322 14.6744C19.3974 18.6674 18.6495 22.1614 18.0886 25.1561C17.5277 28.0511 17.0603 31.6947 16.6864 36.0871C19.2104 28.3006 22.2018 21.7121 25.6606 16.3215C29.2129 10.9309 32.8119 6.9379 36.4577 4.34242C40.1969 1.64712 43.7025 0.299482 46.9743 0.299482C50.2462 0.299482 52.5365 1.09808 53.8452 2.6953C55.2474 4.29251 55.9485 6.73825 55.9485 10.0325C55.9485 13.2269 55.0605 19.0168 53.2843 27.4022C52.5365 30.996 52.0223 33.6912 51.7419 35.4881C56.4159 23.2095 61.6041 14.2751 67.3065 8.68486C73.0089 3.09461 78.3373 0.299482 83.2918 0.299482C89.3681 0.299482 92.4062 3.54382 92.4062 10.0325C92.4062 13.9257 91.3779 20.9634 89.3213 31.1457C87.5452 39.8305 86.6571 45.5705 86.6571 48.3656C86.6571 52.3587 88.0126 54.3552 90.7235 54.3552C92.5932 54.3552 94.79 53.1573 97.314 50.7615C99.9315 48.2658 103.39 44.2728 107.69 38.7824C108.812 37.3848 110.074 36.686 111.476 36.686C112.692 36.686 113.626 37.285 114.281 38.4829C115.029 39.6808 115.403 41.3279 115.403 43.4243C115.403 47.4173 114.515 50.5119 112.738 52.7081C108.719 57.9989 104.372 62.3413 99.6977 65.7354C95.1172 69.1294 89.8822 70.8265 83.9929 70.8265C79.2254 70.8265 75.6263 69.379 73.1958 66.4841C70.7653 63.4893 69.55 59.1968 69.55 53.6065C69.55 50.8114 70.2044 45.8201 71.5132 38.6326C72.7284 32.3436 73.336 28.0012 73.336 25.6053C73.336 24.0081 72.8219 23.2095 71.7936 23.2095C70.5783 23.2095 68.8489 24.9066 66.6054 28.3006C64.3618 31.5949 62.1183 35.9872 59.8747 41.4777C57.6312 46.9681 55.8083 52.758 54.4061 58.8474C53.3778 63.639 52.1625 66.8334 50.7603 68.4307C49.4516 70.0279 47.3015 70.8265 44.3101 70.8265C41.2252 70.8265 38.8882 69.2792 37.299 66.1846C35.8033 62.9901 35.0555 59.1468 35.0555 54.6547C35.0555 50.8613 35.5229 45.3709 36.4577 38.1834C37.2055 31.7946 37.5795 27.6019 37.5795 25.6053C37.5795 24.0081 37.0653 23.2095 36.037 23.2095C34.6348 23.2095 32.8587 25.0064 30.7086 28.6001C28.5585 32.1939 26.4552 36.7858 24.3986 42.3761C22.4355 47.9663 20.8463 53.4568 19.6311 58.8474C18.6028 63.5392 17.3875 66.7336 15.9853 68.4307C14.6766 70.0279 12.5732 70.8265 9.67531 70.8265ZM122.714 70.8265C116.918 70.8265 112.291 68.5804 108.832 64.0882C105.373 59.5961 103.644 53.7063 103.644 46.419C103.644 38.433 105.373 30.8961 108.832 23.8085C112.291 16.621 116.871 10.881 122.574 6.58851C128.369 2.19617 134.492 1.77709e-06 140.943 1.77709e-06C142.999 1.77709e-06 144.355 0.449216 145.009 1.34765C145.757 2.14626 146.365 3.64364 146.832 5.83981C148.795 5.44051 150.852 5.24086 153.002 5.24086C157.582 5.24086 159.873 6.98782 159.873 10.4817C159.873 12.5781 159.171 17.5694 157.769 25.4556C155.619 36.9356 154.544 44.9217 154.544 49.4138C154.544 50.9112 154.871 52.1091 155.526 53.0076C156.274 53.906 157.208 54.3552 158.33 54.3552C160.106 54.3552 162.256 53.1573 164.78 50.7615C167.304 48.2658 170.716 44.2728 175.017 38.7824C176.138 37.3848 177.4 36.686 178.803 36.686C180.018 36.686 180.953 37.285 181.607 38.4829C182.355 39.6808 182.729 41.3279 182.729 43.4243C182.729 47.4173 181.841 50.5119 180.065 52.7081C176.232 57.7992 172.165 62.0917 167.865 65.5856C163.565 69.0795 159.405 70.8265 155.386 70.8265C152.301 70.8265 149.449 69.7284 146.832 67.5322C144.308 65.2362 142.392 62.1416 141.083 58.2484C136.222 66.6338 130.099 70.8265 122.714 70.8265ZM127.762 55.7028C129.818 55.7028 131.781 54.4051 133.651 51.8097C135.521 49.2142 136.876 45.7702 137.718 41.4777L142.906 13.9257C138.98 14.0255 135.334 15.6228 131.968 18.7174C128.697 21.7121 126.079 25.7052 124.116 30.6965C122.153 35.6878 121.171 40.9785 121.171 46.5688C121.171 49.6634 121.732 51.9594 122.854 53.4568C124.069 54.9542 125.705 55.7028 127.762 55.7028ZM182.69 70.8265C179.138 70.8265 176.614 68.83 175.118 64.8369C173.716 60.8439 173.015 54.455 173.015 45.6703C173.015 32.693 174.744 20.3645 178.203 8.68486C179.045 5.78991 180.4 3.69356 182.27 2.39582C184.233 0.998262 186.944 0.299482 190.402 0.299482C192.271 0.299482 193.58 0.54904 194.328 1.04817C195.076 1.5473 195.45 2.49564 195.45 3.89321C195.45 5.49042 194.749 9.08416 193.346 14.6744C192.412 18.6674 191.664 22.1614 191.103 25.1561C190.542 28.1509 190.075 31.8445 189.701 36.2368C192.786 27.6518 196.244 20.664 200.077 15.2734C203.91 9.88277 207.649 6.03947 211.295 3.74347C215.034 1.44748 218.446 0.299482 221.531 0.299482C227.607 0.299482 230.645 3.54382 230.645 10.0325C230.645 13.9257 229.617 20.9634 227.561 31.1457C225.784 39.8305 224.896 45.5705 224.896 48.3656C224.896 52.3587 226.252 54.3552 228.963 54.3552C230.832 54.3552 233.029 53.1573 235.553 50.7615C238.171 48.2658 241.63 44.2728 245.93 38.7824C247.051 37.3848 248.313 36.686 249.716 36.686C250.931 36.686 251.866 37.285 252.52 38.4829C253.268 39.6808 253.642 41.3279 253.642 43.4243C253.642 47.4173 252.754 50.5119 250.978 52.7081C246.958 57.9989 242.611 62.3413 237.937 65.7354C233.356 69.1294 228.122 70.8265 222.232 70.8265C217.465 70.8265 213.866 69.379 211.435 66.4841C209.005 63.4893 207.789 59.1968 207.789 53.6065C207.789 50.8114 208.444 45.8201 209.752 38.6326C210.968 32.3436 211.575 28.0012 211.575 25.6053C211.575 24.0081 211.061 23.2095 210.033 23.2095C208.818 23.2095 207.088 24.9066 204.845 28.3006C202.695 31.5949 200.451 35.9872 198.114 41.4777C195.87 46.9681 194.048 52.758 192.645 58.8474C191.617 63.5392 190.402 66.7336 189 68.4307C187.692 70.0279 185.588 70.8265 182.69 70.8265ZM260.947 70.8265C255.151 70.8265 250.524 68.5804 247.065 64.0882C243.606 59.5961 241.877 53.7063 241.877 46.419C241.877 38.433 243.606 30.8961 247.065 23.8085C250.524 16.621 255.104 10.881 260.807 6.58851C266.603 2.19617 272.726 1.77709e-06 279.176 1.77709e-06C281.232 1.77709e-06 282.588 0.449216 283.242 1.34765C283.99 2.14626 284.598 3.64364 285.065 5.83981C287.028 5.44051 289.085 5.24086 291.235 5.24086C295.816 5.24086 298.106 6.98782 298.106 10.4817C298.106 12.5781 297.405 17.5694 296.003 25.4556C293.852 36.9356 292.777 44.9217 292.777 49.4138C292.777 50.9112 293.105 52.1091 293.759 53.0076C294.507 53.906 295.442 54.3552 296.563 54.3552C298.34 54.3552 300.49 53.1573 303.014 50.7615C305.538 48.2658 308.95 44.2728 313.25 38.7824C314.372 37.3848 315.634 36.686 317.036 36.686C318.251 36.686 319.186 37.285 319.84 38.4829C320.588 39.6808 320.962 41.3279 320.962 43.4243C320.962 47.4173 320.074 50.5119 318.298 52.7081C314.465 57.7992 310.399 62.0917 306.098 65.5856C301.798 69.0795 297.638 70.8265 293.619 70.8265C290.534 70.8265 287.683 69.7284 285.065 67.5322C282.541 65.2362 280.625 62.1416 279.316 58.2484C274.455 66.6338 268.332 70.8265 260.947 70.8265ZM265.995 55.7028C268.052 55.7028 270.015 54.4051 271.884 51.8097C273.754 49.2142 275.109 45.7702 275.951 41.4777L281.139 13.9257C277.213 14.0255 273.567 15.6228 270.202 18.7174C266.93 21.7121 264.312 25.7052 262.349 30.6965C260.386 35.6878 259.405 40.9785 259.405 46.5688C259.405 49.6634 259.965 51.9594 261.087 53.4568C262.303 54.9542 263.938 55.7028 265.995 55.7028ZM382.763 36.9855C383.978 36.9855 384.913 37.6344 385.567 38.9321C386.315 40.13 386.689 41.6773 386.689 43.574C386.689 45.87 386.362 47.6669 385.707 48.9646C385.053 50.2623 384.025 51.4103 382.623 52.4086C374.583 58.1985 368.694 62.491 364.955 65.2861L355.98 71.7249C352.428 92.3889 347.754 108.611 341.958 120.39C336.256 132.269 328.964 138.209 320.084 138.209C315.316 138.209 311.437 136.612 308.445 133.417C305.454 130.323 303.958 126.23 303.958 121.139C303.958 114.051 306.576 106.414 311.811 98.2287C317.046 90.1428 326.861 80.1602 341.257 68.2809L342.098 62.4411C340.509 65.1364 338.406 67.2327 335.789 68.7301C333.265 70.1277 330.741 70.8265 328.217 70.8265C322.421 70.8265 317.793 68.5804 314.335 64.0882C310.876 59.5961 309.146 53.7063 309.146 46.419C309.146 38.433 310.876 30.8961 314.335 23.8085C317.793 16.621 322.374 10.881 328.076 6.58851C333.872 2.19617 339.995 1.77709e-06 346.445 1.77709e-06C348.502 1.77709e-06 349.857 0.449216 350.512 1.34765C351.26 2.14626 351.867 3.64364 352.335 5.83981C354.111 5.44051 356.167 5.24086 358.504 5.24086C360.841 5.24086 362.477 5.64017 363.412 6.43877C364.441 7.13756 364.955 8.58503 364.955 10.7812C364.955 11.9791 364.908 12.9275 364.814 13.6262C364.441 16.7208 363.272 24.5572 361.309 37.1352C360.935 39.5311 360.514 42.1764 360.047 45.0714C359.673 47.8665 359.252 50.8613 358.785 54.0557C365.983 48.0662 372.901 42.7754 379.538 38.1834C380.753 37.3848 381.828 36.9855 382.763 36.9855ZM333.265 55.7028C335.415 55.7028 337.471 54.3053 339.434 51.5102C341.397 48.715 342.8 44.722 343.641 39.531L348.128 13.9257C344.295 14.0255 340.743 15.6228 337.471 18.7174C334.199 21.7121 331.582 25.7052 329.619 30.6965C327.656 35.6878 326.674 40.9785 326.674 46.5688C326.674 49.6634 327.235 51.9594 328.357 53.4568C329.572 54.9542 331.208 55.7028 333.265 55.7028ZM321.626 123.684C323.963 123.684 326.581 120.69 329.479 114.7C332.47 108.71 335.321 99.177 338.032 86.0998C330.834 92.6884 325.646 98.628 322.467 103.919C319.289 109.21 317.7 113.851 317.7 117.844C317.7 119.542 317.98 120.939 318.541 122.037C319.196 123.135 320.224 123.684 321.626 123.684ZM442.009 36.686C443.224 36.686 444.159 37.285 444.813 38.4829C445.561 39.6808 445.935 41.3279 445.935 43.4243C445.935 47.4173 445.047 50.5119 443.271 52.7081C439.812 57.2002 434.904 61.343 428.547 65.1364C422.284 68.9298 415.553 70.8265 408.355 70.8265C398.54 70.8265 390.921 67.9814 385.499 62.2914C380.077 56.6013 377.366 48.8149 377.366 38.9321C377.366 32.0441 378.722 25.6553 381.433 19.7655C384.144 13.776 387.883 9.03424 392.65 5.54033C397.511 2.04643 402.98 0.299482 409.056 0.299482C414.478 0.299482 418.825 2.04643 422.097 5.54033C425.369 8.93442 427.005 13.5763 427.005 19.4661C427.005 26.354 424.668 32.2937 419.994 37.285C415.413 42.1764 407.607 46.0697 396.577 48.9646C398.914 53.5566 403.354 55.8526 409.898 55.8526C414.104 55.8526 418.872 54.3053 424.2 51.2107C429.622 48.0163 434.296 43.8735 438.223 38.7824C439.344 37.3848 440.606 36.686 442.009 36.686ZM406.673 14.9739C403.214 14.9739 400.269 17.1201 397.839 21.4127C395.502 25.7052 394.333 30.8961 394.333 36.9855V37.285C399.848 35.8874 404.195 33.7911 407.374 30.9959C410.552 28.2008 412.141 24.9565 412.141 21.2629C412.141 19.3662 411.627 17.8688 410.599 16.7707C409.664 15.5728 408.355 14.9739 406.673 14.9739ZM492.568 20.8137C494.625 20.8137 496.354 21.6123 497.756 23.2095C499.252 24.7069 500 26.6036 500 28.8996C500 30.1973 499.72 31.5949 499.159 33.0923C497.663 36.7859 495.56 39.8804 492.849 42.3761C490.138 44.8717 487.146 46.1196 483.874 46.1196C481.257 46.1196 479.013 45.1213 477.144 43.1248C475.368 41.1283 474.48 38.433 474.48 35.0389C474.48 33.1422 474.573 31.0958 474.76 28.8996C474.947 27.3024 475.041 26.2043 475.041 25.6053C475.041 24.8067 474.854 24.2078 474.48 23.8085C474.199 23.4092 473.825 23.2095 473.358 23.2095C472.049 23.2095 470.273 24.9066 468.029 28.3006C465.786 31.5949 463.542 35.9872 461.299 41.4777C459.055 46.9681 457.232 52.758 455.83 58.8474C454.802 63.639 453.633 66.8334 452.325 68.4307C451.016 70.0279 448.866 70.8265 445.874 70.8265C442.322 70.8265 439.798 68.83 438.302 64.8369C436.9 60.8439 436.199 54.455 436.199 45.6703C436.199 32.693 437.928 20.3645 441.387 8.68486C442.229 5.78991 443.584 3.69356 445.454 2.39582C447.417 0.998262 450.128 0.299482 453.587 0.299482C455.456 0.299482 456.765 0.54904 457.513 1.04817C458.261 1.5473 458.635 2.49564 458.635 3.89321C458.635 5.49042 457.933 9.08416 456.531 14.6744C455.596 18.6674 454.849 22.1614 454.288 25.1561C453.727 28.1509 453.259 31.8445 452.885 36.2368C455.97 27.6518 459.429 20.664 463.262 15.2734C467.095 9.88277 470.834 6.03947 474.48 3.74347C478.125 1.44748 481.444 0.299482 484.435 0.299482C487.146 0.299482 489.203 1.148 490.605 2.84504C492.101 4.44225 492.849 6.83807 492.849 10.0325C492.849 11.9292 492.335 15.5229 491.306 20.8137H492.568Z" transform="translate(4 279.791)" fill="white"/>
</g>
<g filter="url(#filter1_d)">
<path d="M37.4117 127.859C31.9114 127.859 25.6998 127.366 18.777 126.381C14.9837 125.888 12.3757 124.853 10.9532 123.277C9.53074 121.7 8.91433 119.138 9.10399 115.59C9.76783 105.835 11.3326 93.8124 13.7982 79.5237C16.2639 65.1365 19.2512 51.2913 22.76 37.9881C23.4238 35.5245 24.7515 33.8 26.743 32.8146C28.7345 31.8292 31.3424 31.3365 34.5667 31.3365C40.3516 31.3365 43.244 33.0117 43.244 36.3622C43.244 37.7417 42.9595 39.3184 42.3905 41.0922C39.9248 48.9756 37.4591 59.5689 34.9935 72.8721C32.5278 86.0768 30.7734 98.6902 29.7302 110.712C32.5752 111.008 35.7996 111.156 39.4032 111.156C55.999 111.156 68.3748 105.933 76.5304 95.4876C84.7809 85.0421 88.9062 71.0984 88.9062 53.6563C88.9062 41.9298 85.6819 32.8639 79.2332 26.4586C72.7845 20.0534 63.6805 16.8508 51.9212 16.8508C44.3346 16.8508 36.7953 18.0825 29.3035 20.5461C21.9065 23.0097 15.2207 26.2616 9.24624 30.3018C8.01341 31.1887 6.68574 31.6321 5.26325 31.6321C3.65108 31.6321 2.37083 30.9423 1.4225 29.5627C0.474166 28.0846 1.88417e-08 26.3108 1.88417e-08 24.2414C1.88417e-08 21.8764 0.379333 19.9548 1.138 18.4767C1.89667 16.9 3.17691 15.4712 4.97875 14.1901C11.5222 9.55862 19.2037 6.06036 28.0232 3.69534C36.8427 1.23178 45.3303 3.75909e-06 53.486 3.75909e-06C65.0556 3.75909e-06 75.0605 2.11866 83.5007 6.35598C91.9408 10.4948 98.4369 16.6044 102.989 24.6849C107.541 32.7654 109.817 42.5211 109.817 53.952C109.817 68.8319 106.972 81.8395 101.282 92.9748C95.5919 104.012 87.294 112.585 76.3882 118.694C65.4824 124.804 52.4902 127.859 37.4117 127.859Z" transform="matrix(0.877483 -0.479608 0.43222 0.901768 307.62 122.918)" fill="white"/>
</g>
<g filter="url(#filter2_d)">
<path d="M101.521 99.7261C102.923 99.1271 104.091 98.8276 105.026 98.8276C106.522 98.8276 107.644 99.4266 108.392 100.625C109.139 101.822 109.513 103.37 109.513 105.266C109.513 108.261 108.812 110.807 107.41 112.903C106.101 114.999 103.811 116.896 100.539 118.593C95.0237 121.388 87.8724 123.634 79.0851 125.331C70.2979 126.929 61.6509 127.727 53.1441 127.727C41.3655 127.727 31.5032 126.33 23.5573 123.535C15.6114 120.64 9.67531 116.696 5.7491 111.705C1.91637 106.714 2.19162e-07 101.074 2.19162e-07 94.7847C2.19162e-07 86.1997 2.57073 78.9124 7.7122 72.9228C12.9472 66.8335 20.6126 62.4411 30.7086 59.7458C25.1932 58.0488 20.9398 55.054 17.9484 50.7615C15.0505 46.469 13.6015 41.6773 13.6015 36.3865C13.6015 29.1991 15.7048 22.8601 19.9115 17.3697C24.2116 11.7795 29.9607 7.48694 37.1588 4.49217C44.3569 1.49739 52.256 5.07741e-07 60.8563 5.07741e-07C72.448 5.07741e-07 81.1417 2.6953 86.9376 8.0859C92.7334 13.3767 95.6313 20.2647 95.6313 28.7499C95.6313 34.6396 94.603 39.4312 92.5464 43.1248C90.5833 46.7185 87.7322 48.5154 83.9929 48.5154C81.3754 48.5154 79.3188 47.9164 77.8231 46.7185C76.3274 45.4208 75.5796 43.5241 75.5796 41.0284C75.5796 39.3314 75.8133 37.4846 76.2807 35.4881C76.7481 32.1939 76.9818 29.9478 76.9818 28.7499C76.9818 25.1561 75.7198 22.2612 73.1958 20.065C70.6718 17.769 66.4652 16.621 60.5758 16.621C52.6299 16.621 46.2732 18.4179 41.5057 22.0116C36.7381 25.6053 34.3544 30.4469 34.3544 36.5363C34.3544 41.2281 36.1305 45.1213 39.6828 48.2159C43.3286 51.2107 49.2179 52.8578 57.3507 53.1573C59.4073 53.2571 60.8563 53.7562 61.6976 54.6547C62.5389 55.5531 62.9596 57.0505 62.9596 59.1468C62.9596 65.7354 60.1552 69.0795 54.5463 69.1794C46.7874 69.379 40.3372 70.527 35.1957 72.6233C30.1477 74.7197 26.4552 77.415 24.1182 80.7092C21.8746 83.9037 20.7528 87.3477 20.7528 91.0412C20.7528 97.2304 23.4638 101.922 28.8857 105.117C34.3076 108.211 42.9079 109.759 54.6865 109.759C62.4455 109.759 70.6251 108.81 79.2254 106.914C87.9191 104.917 95.3509 102.521 101.521 99.7261Z" transform="translate(211.669 116.825)" fill="white"/>
</g>
<g filter="url(#filter3_d)">
<path d="M33.1313 126.131C29.6238 126.131 27.1117 125.342 25.595 123.765C24.0782 122.089 23.3199 118.984 23.3199 114.449C23.3199 111.393 23.6043 107.499 24.173 102.768C24.8366 97.9373 25.8794 91.3325 27.3013 82.9534C29.766 67.4766 31.7094 54.07 33.1313 42.7336C33.9845 35.6359 34.411 29.7213 34.411 24.9895C34.411 20.5535 32.8469 18.3355 29.7186 18.3355C27.2539 18.3355 24.2678 19.6663 20.7604 22.3279C17.3477 24.891 13.5559 29.0312 9.38483 34.7487C8.05768 36.6217 6.58834 37.5582 4.9768 37.5582C3.64966 37.5582 2.4647 36.9175 1.42194 35.636C0.473981 34.2559 6.12116e-09 32.7279 6.12116e-09 31.0521C6.12116e-09 29.4748 0.284389 27.8976 0.853166 26.3203C1.51674 24.6445 2.5595 22.7715 3.98144 20.7014C8.53166 14.0967 13.6033 9.01989 19.1962 5.47108C24.7892 1.8237 30.3822 5.01394e-07 35.9752 5.01394e-07C41.189 5.01394e-07 45.1704 1.72512 47.9195 5.17535C50.7634 8.62558 52.1853 13.6531 52.1853 20.2578C52.1853 22.9194 51.9484 26.0739 51.4744 29.7213C51.0004 33.2701 50.5738 36.1781 50.1946 38.4454C49.8154 40.7127 49.531 42.29 49.3415 43.1772C54.7448 27.1089 60.8118 15.9204 67.5423 9.61136C74.2729 3.20379 81.667 5.01394e-07 89.7247 5.01394e-07C95.8864 5.01394e-07 100.721 2.2673 104.228 6.80188C107.831 11.3365 109.632 17.744 109.632 26.0246C109.632 29.2777 109.205 33.3194 108.352 38.1497C113.092 24.5459 118.638 14.7867 124.989 8.87202C131.34 2.95734 138.64 5.01394e-07 146.887 5.01394e-07C153.523 5.01394e-07 158.594 2.218 162.102 6.65401C165.704 11.09 167.505 17.3004 167.505 25.2853C167.505 29.6227 166.889 34.8966 165.656 41.107L156.983 83.397C156.035 88.3259 155.561 92.5648 155.561 96.1136C155.561 100.254 156.461 103.359 158.262 105.429C160.158 107.499 162.765 108.534 166.083 108.534C169.211 108.534 172.245 107.45 175.183 105.281C178.217 103.113 181.772 99.5145 185.848 94.487C186.986 93.1069 188.265 92.4169 189.687 92.4169C190.92 92.4169 191.868 93.0083 192.531 94.1913C193.29 95.3742 193.669 97.0008 193.669 99.0709C193.669 102.915 192.768 105.971 190.967 108.239C186.038 114.449 181.156 118.984 176.321 121.842C171.486 124.701 166.415 126.131 161.106 126.131C153.049 126.131 146.745 123.666 142.194 118.737C137.644 113.71 135.369 107.006 135.369 98.6273C135.369 92.8112 136.507 84.3828 138.782 73.342L144.469 46.2824C144.659 45.3952 144.991 43.8179 145.465 41.5506C145.939 39.2833 146.318 37.1639 146.602 35.1924C146.887 33.1222 147.029 31.1014 147.029 29.1298C147.029 25.6796 146.365 23.1165 145.038 21.4407C143.806 19.6663 142.005 18.7791 139.635 18.7791C135.179 18.7791 130.487 21.7857 125.558 27.799C120.723 33.7137 116.078 43.5715 111.623 57.3724C107.262 71.1733 103.707 89.1145 100.958 111.196C100.294 117.111 99.1095 121.103 97.4032 123.173C95.7916 125.145 93.1373 126.131 89.4403 126.131C86.2172 126.131 83.8473 125.342 82.3306 123.765C80.9086 122.187 80.1976 119.23 80.1976 114.893C80.1976 110.851 80.719 105.577 81.7618 99.0709C82.8045 92.4662 84.1317 84.7278 85.7432 75.8558C90.1038 51.9999 92.2841 36.6217 92.2841 29.7213C92.2841 25.9753 91.5732 23.2151 90.1512 21.4407C88.8241 19.6663 86.786 18.7791 84.0369 18.7791C79.3919 18.7791 74.6047 21.5393 69.6752 27.0597C64.7458 32.4815 59.9112 42.1914 55.1714 56.1895C50.5264 70.089 46.6398 88.9174 43.5115 112.675C42.8479 117.702 41.8525 121.202 40.5254 123.173C39.2931 125.145 36.8283 126.131 33.1313 126.131Z" transform="matrix(0.880988 0.473139 -0.42607 0.90469 71.3728 38.7432)" fill="white"/>
</g>
<path d="M58.4447 38.4816C90.7228 38.4816 116.889 29.8672 116.889 19.2408C116.889 8.6144 90.7228 0 58.4447 0C26.1666 0 0 8.6144 0 19.2408C0 29.8672 26.1666 38.4816 58.4447 38.4816Z" transform="matrix(0.852255 -0.523127 0.473969 0.880542 164.476 49.1479)" fill="#818FFF"/>
<path d="M60.362 51.2425C93.6991 51.2425 120.724 39.7715 120.724 25.6212C120.724 11.471 93.6991 0 60.362 0C27.025 0 0 11.471 0 25.6212C0 39.7715 27.025 51.2425 60.362 51.2425Z" transform="matrix(0.861943 -0.507004 0.458424 0.888734 259.426 55.1047)" fill="#FFBB38"/>
<defs>
<filter id="filter0_d" x="0" y="279.791" width="508" height="146.209" filterUnits="userSpaceOnUse" color-interpolation-filters="sRGB">
<feFlood flood-opacity="0" result="BackgroundImageFix"/>
<feColorMatrix in="SourceAlpha" type="matrix" values="0 0 0 0 0 0 0 0 0 0 0 0 0 0 0 0 0 0 255 0"/>
<feOffset dy="4"/>
<feGaussianBlur stdDeviation="2"/>
<feColorMatrix type="matrix" values="0 0 0 0 0.741176 0 0 0 0 0.741176 0 0 0 0 0.741176 0 0 0 0.25 0"/>
<feBlend mode="normal" in2="BackgroundImageFix" result="effect1_dropShadow"/>
<feBlend mode="normal" in="SourceGraphic" in2="effect1_dropShadow" result="shape"/>
</filter>
<filter id="filter1_d" x="316.604" y="88.5741" width="128.083" height="148.645" filterUnits="userSpaceOnUse" color-interpolation-filters="sRGB">
<feFlood flood-opacity="0" result="BackgroundImageFix"/>
<feColorMatrix in="SourceAlpha" type="matrix" values="0 0 0 0 0 0 0 0 0 0 0 0 0 0 0 0 0 0 255 0"/>
<feOffset dx="4" dy="4"/>
<feGaussianBlur stdDeviation="2"/>
<feColorMatrix type="matrix" values="0 0 0 0 0.741176 0 0 0 0 0.741176 0 0 0 0 0.741176 0 0 0 1 0"/>
<feBlend mode="normal" in2="BackgroundImageFix" result="effect1_dropShadow"/>
<feBlend mode="normal" in="SourceGraphic" in2="effect1_dropShadow" result="shape"/>
</filter>
<filter id="filter2_d" x="211.669" y="116.825" width="117.513" height="135.727" filterUnits="userSpaceOnUse" color-interpolation-filters="sRGB">
<feFlood flood-opacity="0" result="BackgroundImageFix"/>
<feColorMatrix in="SourceAlpha" type="matrix" values="0 0 0 0 0 0 0 0 0 0 0 0 0 0 0 0 0 0 255 0"/>
<feOffset dx="4" dy="4"/>
<feGaussianBlur stdDeviation="2"/>
<feColorMatrix type="matrix" values="0 0 0 0 0.741176 0 0 0 0 0.741176 0 0 0 0 0.741176 0 0 0 1 0"/>
<feBlend mode="normal" in2="BackgroundImageFix" result="effect1_dropShadow"/>
<feBlend mode="normal" in="SourceGraphic" in2="effect1_dropShadow" result="shape"/>
</filter>
<filter id="filter3_d" x="40.9619" y="52.5812" width="178.913" height="187.864" filterUnits="userSpaceOnUse" color-interpolation-filters="sRGB">
<feFlood flood-opacity="0" result="BackgroundImageFix"/>
<feColorMatrix in="SourceAlpha" type="matrix" values="0 0 0 0 0 0 0 0 0 0 0 0 0 0 0 0 0 0 255 0"/>
<feOffset dx="4" dy="4"/>
<feGaussianBlur stdDeviation="2"/>
<feColorMatrix type="matrix" values="0 0 0 0 0.741176 0 0 0 0 0.741176 0 0 0 0 0.741176 0 0 0 1 0"/>
<feBlend mode="normal" in2="BackgroundImageFix" result="effect1_dropShadow"/>
<feBlend mode="normal" in="SourceGraphic" in2="effect1_dropShadow" result="shape"/>
</filter>
</defs>
</svg>
