<svg width="266" height="209" viewBox="0 0 266 209" fill="none" xmlns="http://www.w3.org/2000/svg">
<g filter="url(#filter0_d)">
<path d="M8.568 94.36C6.744 94.36 5.448 93.4 4.68 91.48C3.96 89.56 3.6 86.488 3.6 82.264C3.6 76.024 4.488 70.096 6.264 64.48C6.696 63.088 7.392 62.08 8.352 61.456C9.36 60.784 10.752 60.448 12.528 60.448C13.488 60.448 14.16 60.568 14.544 60.808C14.928 61.048 15.12 61.504 15.12 62.176C15.12 62.944 14.76 64.672 14.04 67.36C13.56 69.28 13.176 70.96 12.888 72.4C12.6 73.792 12.36 75.544 12.168 77.656C13.464 73.912 15 70.744 16.776 68.152C18.6 65.56 20.448 63.64 22.32 62.392C24.24 61.096 26.04 60.448 27.72 60.448C29.4 60.448 30.576 60.832 31.248 61.6C31.968 62.368 32.328 63.544 32.328 65.128C32.328 66.664 31.872 69.448 30.96 73.48C30.576 75.208 30.312 76.504 30.168 77.368C32.568 71.464 35.232 67.168 38.16 64.48C41.088 61.792 43.824 60.448 46.368 60.448C49.488 60.448 51.048 62.008 51.048 65.128C51.048 67 50.52 70.384 49.464 75.28C48.552 79.456 48.096 82.216 48.096 83.56C48.096 85.48 48.792 86.44 50.184 86.44C51.144 86.44 52.272 85.864 53.568 84.712C54.912 83.512 56.688 81.592 58.896 78.952C59.472 78.28 60.12 77.944 60.84 77.944C61.464 77.944 61.944 78.232 62.28 78.808C62.664 79.384 62.856 80.176 62.856 81.184C62.856 83.104 62.4 84.592 61.488 85.648C59.424 88.192 57.192 90.28 54.792 91.912C52.44 93.544 49.752 94.36 46.728 94.36C44.28 94.36 42.432 93.664 41.184 92.272C39.936 90.832 39.312 88.768 39.312 86.08C39.312 84.736 39.648 82.336 40.32 78.88C40.944 75.856 41.256 73.768 41.256 72.616C41.256 71.848 40.992 71.464 40.464 71.464C39.84 71.464 38.952 72.28 37.8 73.912C36.648 75.496 35.496 77.608 34.344 80.248C33.192 82.888 32.256 85.672 31.536 88.6C31.008 90.904 30.384 92.44 29.664 93.208C28.992 93.976 27.888 94.36 26.352 94.36C24.768 94.36 23.568 93.616 22.752 92.128C21.984 90.592 21.6 88.744 21.6 86.584C21.6 84.76 21.84 82.12 22.32 78.664C22.704 75.592 22.896 73.576 22.896 72.616C22.896 71.848 22.632 71.464 22.104 71.464C21.384 71.464 20.472 72.328 19.368 74.056C18.264 75.784 17.184 77.992 16.128 80.68C15.12 83.368 14.304 86.008 13.68 88.6C13.152 90.856 12.528 92.392 11.808 93.208C11.136 93.976 10.056 94.36 8.568 94.36ZM66.6101 94.36C63.6341 94.36 61.2581 93.28 59.4821 91.12C57.7061 88.96 56.8181 86.128 56.8181 82.624C56.8181 78.784 57.7061 75.16 59.4821 71.752C61.2581 68.296 63.6101 65.536 66.5381 63.472C69.5141 61.36 72.6581 60.304 75.9701 60.304C77.0261 60.304 77.7221 60.52 78.0581 60.952C78.4421 61.336 78.7541 62.056 78.9941 63.112C80.0021 62.92 81.0581 62.824 82.1621 62.824C84.5141 62.824 85.6901 63.664 85.6901 65.344C85.6901 66.352 85.3301 68.752 84.6101 72.544C83.5061 78.064 82.9541 81.904 82.9541 84.064C82.9541 84.784 83.1221 85.36 83.4581 85.792C83.8421 86.224 84.3221 86.44 84.8981 86.44C85.8101 86.44 86.9141 85.864 88.2101 84.712C89.5061 83.512 91.2581 81.592 93.4661 78.952C94.0421 78.28 94.6901 77.944 95.4101 77.944C96.0341 77.944 96.5141 78.232 96.8501 78.808C97.2341 79.384 97.4261 80.176 97.4261 81.184C97.4261 83.104 96.9701 84.592 96.0581 85.648C94.0901 88.096 92.0021 90.16 89.7941 91.84C87.5861 93.52 85.4501 94.36 83.3861 94.36C81.8021 94.36 80.3381 93.832 78.9941 92.776C77.6981 91.672 76.7141 90.184 76.0421 88.312C73.5461 92.344 70.4021 94.36 66.6101 94.36ZM69.2021 87.088C70.2581 87.088 71.2661 86.464 72.2261 85.216C73.1861 83.968 73.8821 82.312 74.3141 80.248L76.9781 67C74.9621 67.048 73.0901 67.816 71.3621 69.304C69.6821 70.744 68.3381 72.664 67.3301 75.064C66.3221 77.464 65.8181 80.008 65.8181 82.696C65.8181 84.184 66.1061 85.288 66.6821 86.008C67.3061 86.728 68.1461 87.088 69.2021 87.088ZM97.4064 94.36C95.5824 94.36 94.2864 93.4 93.5184 91.48C92.7984 89.56 92.4384 86.488 92.4384 82.264C92.4384 76.024 93.3264 70.096 95.1024 64.48C95.5344 63.088 96.2304 62.08 97.1904 61.456C98.1984 60.784 99.5904 60.448 101.366 60.448C102.326 60.448 102.998 60.568 103.382 60.808C103.766 61.048 103.958 61.504 103.958 62.176C103.958 62.944 103.598 64.672 102.878 67.36C102.398 69.28 102.014 70.96 101.726 72.4C101.438 73.84 101.198 75.616 101.006 77.728C102.59 73.6 104.366 70.24 106.334 67.648C108.302 65.056 110.222 63.208 112.094 62.104C114.014 61 115.766 60.448 117.35 60.448C120.47 60.448 122.03 62.008 122.03 65.128C122.03 67 121.502 70.384 120.446 75.28C119.534 79.456 119.078 82.216 119.078 83.56C119.078 85.48 119.774 86.44 121.166 86.44C122.126 86.44 123.254 85.864 124.55 84.712C125.894 83.512 127.67 81.592 129.878 78.952C130.454 78.28 131.102 77.944 131.822 77.944C132.446 77.944 132.926 78.232 133.262 78.808C133.646 79.384 133.838 80.176 133.838 81.184C133.838 83.104 133.382 84.592 132.47 85.648C130.406 88.192 128.174 90.28 125.774 91.912C123.422 93.544 120.734 94.36 117.71 94.36C115.262 94.36 113.414 93.664 112.166 92.272C110.918 90.832 110.294 88.768 110.294 86.08C110.294 84.736 110.63 82.336 111.302 78.88C111.926 75.856 112.238 73.768 112.238 72.616C112.238 71.848 111.974 71.464 111.446 71.464C110.822 71.464 109.934 72.28 108.782 73.912C107.678 75.496 106.526 77.608 105.326 80.248C104.174 82.888 103.238 85.672 102.518 88.6C101.99 90.856 101.366 92.392 100.646 93.208C99.9744 93.976 98.8944 94.36 97.4064 94.36ZM137.589 94.36C134.613 94.36 132.237 93.28 130.461 91.12C128.685 88.96 127.797 86.128 127.797 82.624C127.797 78.784 128.685 75.16 130.461 71.752C132.237 68.296 134.589 65.536 137.517 63.472C140.493 61.36 143.637 60.304 146.949 60.304C148.005 60.304 148.701 60.52 149.037 60.952C149.421 61.336 149.733 62.056 149.973 63.112C150.981 62.92 152.037 62.824 153.141 62.824C155.493 62.824 156.669 63.664 156.669 65.344C156.669 66.352 156.309 68.752 155.589 72.544C154.485 78.064 153.933 81.904 153.933 84.064C153.933 84.784 154.101 85.36 154.437 85.792C154.821 86.224 155.301 86.44 155.877 86.44C156.789 86.44 157.893 85.864 159.189 84.712C160.485 83.512 162.237 81.592 164.445 78.952C165.021 78.28 165.669 77.944 166.389 77.944C167.013 77.944 167.493 78.232 167.829 78.808C168.213 79.384 168.405 80.176 168.405 81.184C168.405 83.104 167.949 84.592 167.037 85.648C165.069 88.096 162.981 90.16 160.773 91.84C158.565 93.52 156.429 94.36 154.365 94.36C152.781 94.36 151.317 93.832 149.973 92.776C148.677 91.672 147.693 90.184 147.021 88.312C144.525 92.344 141.381 94.36 137.589 94.36ZM140.181 87.088C141.237 87.088 142.245 86.464 143.205 85.216C144.165 83.968 144.861 82.312 145.293 80.248L147.957 67C145.941 67.048 144.069 67.816 142.341 69.304C140.661 70.744 139.317 72.664 138.309 75.064C137.301 77.464 136.797 80.008 136.797 82.696C136.797 84.184 137.085 85.288 137.661 86.008C138.285 86.728 139.125 87.088 140.181 87.088ZM200.138 78.088C200.762 78.088 201.242 78.4 201.578 79.024C201.962 79.6 202.154 80.344 202.154 81.256C202.154 82.36 201.986 83.224 201.65 83.848C201.314 84.472 200.786 85.024 200.066 85.504C195.938 88.288 192.914 90.352 190.994 91.696L186.386 94.792C184.562 104.728 182.162 112.528 179.186 118.192C176.258 123.904 172.514 126.76 167.954 126.76C165.506 126.76 163.514 125.992 161.978 124.456C160.442 122.968 159.674 121 159.674 118.552C159.674 115.144 161.018 111.472 163.706 107.536C166.394 103.648 171.434 98.848 178.826 93.136L179.258 90.328C178.442 91.624 177.362 92.632 176.018 93.352C174.722 94.024 173.426 94.36 172.13 94.36C169.154 94.36 166.778 93.28 165.002 91.12C163.226 88.96 162.338 86.128 162.338 82.624C162.338 78.784 163.226 75.16 165.002 71.752C166.778 68.296 169.13 65.536 172.058 63.472C175.034 61.36 178.178 60.304 181.49 60.304C182.546 60.304 183.242 60.52 183.578 60.952C183.962 61.336 184.274 62.056 184.514 63.112C185.426 62.92 186.482 62.824 187.682 62.824C188.882 62.824 189.722 63.016 190.202 63.4C190.73 63.736 190.994 64.432 190.994 65.488C190.994 66.064 190.97 66.52 190.922 66.856C190.73 68.344 190.13 72.112 189.122 78.16C188.93 79.312 188.714 80.584 188.474 81.976C188.282 83.32 188.066 84.76 187.826 86.296C191.522 83.416 195.074 80.872 198.482 78.664C199.106 78.28 199.658 78.088 200.138 78.088ZM174.722 87.088C175.826 87.088 176.882 86.416 177.89 85.072C178.898 83.728 179.618 81.808 180.05 79.312L182.354 67C180.386 67.048 178.562 67.816 176.882 69.304C175.202 70.744 173.858 72.664 172.85 75.064C171.842 77.464 171.338 80.008 171.338 82.696C171.338 84.184 171.626 85.288 172.202 86.008C172.826 86.728 173.666 87.088 174.722 87.088ZM168.746 119.776C169.946 119.776 171.29 118.336 172.778 115.456C174.314 112.576 175.778 107.992 177.17 101.704C173.474 104.872 170.81 107.728 169.178 110.272C167.546 112.816 166.73 115.048 166.73 116.968C166.73 117.784 166.874 118.456 167.162 118.984C167.498 119.512 168.026 119.776 168.746 119.776ZM230.559 77.944C231.183 77.944 231.663 78.232 231.999 78.808C232.383 79.384 232.575 80.176 232.575 81.184C232.575 83.104 232.119 84.592 231.207 85.648C229.431 87.808 226.911 89.8 223.647 91.624C220.431 93.448 216.975 94.36 213.279 94.36C208.239 94.36 204.327 92.992 201.543 90.256C198.759 87.52 197.367 83.776 197.367 79.024C197.367 75.712 198.063 72.64 199.455 69.808C200.847 66.928 202.767 64.648 205.215 62.968C207.711 61.288 210.519 60.448 213.639 60.448C216.423 60.448 218.655 61.288 220.335 62.968C222.015 64.6 222.855 66.832 222.855 69.664C222.855 72.976 221.655 75.832 219.255 78.232C216.903 80.584 212.895 82.456 207.231 83.848C208.431 86.056 210.711 87.16 214.071 87.16C216.231 87.16 218.679 86.416 221.415 84.928C224.199 83.392 226.599 81.4 228.615 78.952C229.191 78.28 229.839 77.944 230.559 77.944ZM212.415 67.504C210.639 67.504 209.127 68.536 207.879 70.6C206.679 72.664 206.079 75.16 206.079 78.088V78.232C208.911 77.56 211.143 76.552 212.775 75.208C214.407 73.864 215.223 72.304 215.223 70.528C215.223 69.616 214.959 68.896 214.431 68.368C213.951 67.792 213.279 67.504 212.415 67.504ZM256.52 70.312C257.576 70.312 258.464 70.696 259.184 71.464C259.952 72.184 260.336 73.096 260.336 74.2C260.336 74.824 260.192 75.496 259.904 76.216C259.136 77.992 258.056 79.48 256.664 80.68C255.272 81.88 253.736 82.48 252.056 82.48C250.712 82.48 249.56 82 248.6 81.04C247.688 80.08 247.232 78.784 247.232 77.152C247.232 76.24 247.28 75.256 247.376 74.2C247.472 73.432 247.52 72.904 247.52 72.616C247.52 72.232 247.424 71.944 247.232 71.752C247.088 71.56 246.896 71.464 246.656 71.464C245.984 71.464 245.072 72.28 243.92 73.912C242.768 75.496 241.616 77.608 240.464 80.248C239.312 82.888 238.376 85.672 237.656 88.6C237.128 90.904 236.528 92.44 235.856 93.208C235.184 93.976 234.08 94.36 232.544 94.36C230.72 94.36 229.424 93.4 228.656 91.48C227.936 89.56 227.576 86.488 227.576 82.264C227.576 76.024 228.464 70.096 230.24 64.48C230.672 63.088 231.368 62.08 232.328 61.456C233.336 60.784 234.728 60.448 236.504 60.448C237.464 60.448 238.136 60.568 238.52 60.808C238.904 61.048 239.096 61.504 239.096 62.176C239.096 62.944 238.736 64.672 238.016 67.36C237.536 69.28 237.152 70.96 236.864 72.4C236.576 73.84 236.336 75.616 236.144 77.728C237.728 73.6 239.504 70.24 241.472 67.648C243.44 65.056 245.36 63.208 247.232 62.104C249.104 61 250.808 60.448 252.344 60.448C253.736 60.448 254.792 60.856 255.512 61.672C256.28 62.44 256.664 63.592 256.664 65.128C256.664 66.04 256.4 67.768 255.872 70.312H256.52Z" transform="translate(1 74)" fill="black"/>
</g>
<g filter="url(#filter1_d)">
<path d="M22.176 94.36C19.392 94.36 16.248 94.12 12.744 93.64C10.824 93.4 9.504 92.896 8.784 92.128C8.064 91.36 7.752 90.112 7.848 88.384C8.184 83.632 8.976 77.776 10.224 70.816C11.472 63.808 12.984 57.064 14.76 50.584C15.096 49.384 15.768 48.544 16.776 48.064C17.784 47.584 19.104 47.344 20.736 47.344C23.664 47.344 25.128 48.16 25.128 49.792C25.128 50.464 24.984 51.232 24.696 52.096C23.448 55.936 22.2 61.096 20.952 67.576C19.704 74.008 18.816 80.152 18.288 86.008C19.728 86.152 21.36 86.224 23.184 86.224C31.584 86.224 37.848 83.68 41.976 78.592C46.152 73.504 48.24 66.712 48.24 58.216C48.24 52.504 46.608 48.088 43.344 44.968C40.08 41.848 35.472 40.288 29.52 40.288C25.68 40.288 21.864 40.888 18.072 42.088C14.328 43.288 10.944 44.872 7.92 46.84C7.296 47.272 6.624 47.488 5.904 47.488C5.088 47.488 4.44 47.152 3.96 46.48C3.48 45.76 3.24 44.896 3.24 43.888C3.24 42.736 3.432 41.8 3.816 41.08C4.2 40.312 4.848 39.616 5.76 38.992C9.072 36.736 12.96 35.032 17.424 33.88C21.888 32.68 26.184 32.08 30.312 32.08C36.168 32.08 41.232 33.112 45.504 35.176C49.776 37.192 53.064 40.168 55.368 44.104C57.672 48.04 58.824 52.792 58.824 58.36C58.824 65.608 57.384 71.944 54.504 77.368C51.624 82.744 47.424 86.92 41.904 89.896C36.384 92.872 29.808 94.36 22.176 94.36Z" transform="translate(143 31.7929) rotate(-27.1049)" fill="black"/>
</g>
<g filter="url(#filter2_d)">
<path d="M54.36 80.896C55.08 80.608 55.68 80.464 56.16 80.464C56.928 80.464 57.504 80.752 57.888 81.328C58.272 81.904 58.464 82.648 58.464 83.56C58.464 85 58.104 86.224 57.384 87.232C56.712 88.24 55.536 89.152 53.856 89.968C51.024 91.312 47.352 92.392 42.84 93.208C38.328 93.976 33.888 94.36 29.52 94.36C23.472 94.36 18.408 93.688 14.328 92.344C10.248 90.952 7.2 89.056 5.184 86.656C3.216 84.256 2.232 81.544 2.232 78.52C2.232 74.392 3.552 70.888 6.192 68.008C8.88 65.08 12.816 62.968 18 61.672C15.168 60.856 12.984 59.416 11.448 57.352C9.96 55.288 9.216 52.984 9.216 50.44C9.216 46.984 10.296 43.936 12.456 41.296C14.664 38.608 17.616 36.544 21.312 35.104C25.008 33.664 29.064 32.944 33.48 32.944C39.432 32.944 43.896 34.24 46.872 36.832C49.848 39.376 51.336 42.688 51.336 46.768C51.336 49.6 50.808 51.904 49.752 53.68C48.744 55.408 47.28 56.272 45.36 56.272C44.016 56.272 42.96 55.984 42.192 55.408C41.424 54.784 41.04 53.872 41.04 52.672C41.04 51.856 41.16 50.968 41.4 50.008C41.64 48.424 41.76 47.344 41.76 46.768C41.76 45.04 41.112 43.648 39.816 42.592C38.52 41.488 36.36 40.936 33.336 40.936C29.256 40.936 25.992 41.8 23.544 43.528C21.096 45.256 19.872 47.584 19.872 50.512C19.872 52.768 20.784 54.64 22.608 56.128C24.48 57.568 27.504 58.36 31.68 58.504C32.736 58.552 33.48 58.792 33.912 59.224C34.344 59.656 34.56 60.376 34.56 61.384C34.56 64.552 33.12 66.16 30.24 66.208C26.256 66.304 22.944 66.856 20.304 67.864C17.712 68.872 15.816 70.168 14.616 71.752C13.464 73.288 12.888 74.944 12.888 76.72C12.888 79.696 14.28 81.952 17.064 83.488C19.848 84.976 24.264 85.72 30.312 85.72C34.296 85.72 38.496 85.264 42.912 84.352C47.376 83.392 51.192 82.24 54.36 80.896Z" transform="translate(109 23)" fill="black"/>
</g>
<g filter="url(#filter3_d)">
<path d="M16.704 94.36C14.928 94.36 13.656 93.976 12.888 93.208C12.12 92.392 11.736 90.88 11.736 88.672C11.736 87.184 11.88 85.288 12.168 82.984C12.504 80.632 13.032 77.416 13.752 73.336C15 65.8 15.984 59.272 16.704 53.752C17.136 50.296 17.352 47.416 17.352 45.112C17.352 42.952 16.56 41.872 14.976 41.872C13.728 41.872 12.216 42.52 10.44 43.816C8.712 45.064 6.792 47.08 4.68 49.864C4.008 50.776 3.264 51.232 2.448 51.232C1.776 51.232 1.176 50.92 0.648 50.296C0.168 49.624 -0.072 48.88 -0.072 48.064C-0.072 47.296 0.072 46.528 0.36 45.76C0.696 44.944 1.224 44.032 1.944 43.024C4.248 39.808 6.816 37.336 9.648 35.608C12.48 33.832 15.312 32.944 18.144 32.944C20.784 32.944 22.8 33.784 24.192 35.464C25.632 37.144 26.352 39.592 26.352 42.808C26.352 44.104 26.232 45.64 25.992 47.416C25.752 49.144 25.536 50.56 25.344 51.664C25.152 52.768 25.008 53.536 24.912 53.968C27.648 46.144 30.72 40.696 34.128 37.624C37.536 34.504 41.28 32.944 45.36 32.944C48.48 32.944 50.928 34.048 52.704 36.256C54.528 38.464 55.44 41.584 55.44 45.616C55.44 47.2 55.224 49.168 54.792 51.52C57.192 44.896 60 40.144 63.216 37.264C66.432 34.384 70.128 32.944 74.304 32.944C77.664 32.944 80.232 34.024 82.008 36.184C83.832 38.344 84.744 41.368 84.744 45.256C84.744 47.368 84.432 49.936 83.808 52.96L79.416 73.552C78.936 75.952 78.696 78.016 78.696 79.744C78.696 81.76 79.152 83.272 80.064 84.28C81.024 85.288 82.344 85.792 84.024 85.792C85.608 85.792 87.144 85.264 88.632 84.208C90.168 83.152 91.968 81.4 94.032 78.952C94.608 78.28 95.256 77.944 95.976 77.944C96.6 77.944 97.08 78.232 97.416 78.808C97.8 79.384 97.992 80.176 97.992 81.184C97.992 83.056 97.536 84.544 96.624 85.648C94.128 88.672 91.656 90.88 89.208 92.272C86.76 93.664 84.192 94.36 81.504 94.36C77.424 94.36 74.232 93.16 71.928 90.76C69.624 88.312 68.472 85.048 68.472 80.968C68.472 78.136 69.048 74.032 70.2 68.656L73.08 55.48C73.176 55.048 73.344 54.28 73.584 53.176C73.824 52.072 74.016 51.04 74.16 50.08C74.304 49.072 74.376 48.088 74.376 47.128C74.376 45.448 74.04 44.2 73.368 43.384C72.744 42.52 71.832 42.088 70.632 42.088C68.376 42.088 66 43.552 63.504 46.48C61.056 49.36 58.704 54.16 56.448 60.88C54.24 67.6 52.44 76.336 51.048 87.088C50.712 89.968 50.112 91.912 49.248 92.92C48.432 93.88 47.088 94.36 45.216 94.36C43.584 94.36 42.384 93.976 41.616 93.208C40.896 92.44 40.536 91 40.536 88.888C40.536 86.92 40.8 84.352 41.328 81.184C41.856 77.968 42.528 74.2 43.344 69.88C45.552 58.264 46.656 50.776 46.656 47.416C46.656 45.592 46.296 44.248 45.576 43.384C44.904 42.52 43.872 42.088 42.48 42.088C40.128 42.088 37.704 43.432 35.208 46.12C32.712 48.76 30.264 53.488 27.864 60.304C25.512 67.072 23.544 76.24 21.96 87.808C21.624 90.256 21.12 91.96 20.448 92.92C19.824 93.88 18.576 94.36 16.704 94.36Z" transform="translate(54.0601 -11) rotate(26.6988)" fill="black"/>
</g>
<ellipse cx="29.5" cy="9.3964" rx="29.5" ry="9.3964" transform="translate(87 23.4022) rotate(-29.8904)" fill="#818FFF"/>
<ellipse cx="30.5" cy="12.5" rx="30.5" ry="12.5" transform="translate(135.754 26.2665) rotate(-28.8471)" fill="#FFBB38"/>
<defs>
<filter id="filter0_d" x="0.599976" y="134.304" width="264.736" height="74.456" filterUnits="userSpaceOnUse" color-interpolation-filters="sRGB">
<feFlood flood-opacity="0" result="BackgroundImageFix"/>
<feColorMatrix in="SourceAlpha" type="matrix" values="0 0 0 0 0 0 0 0 0 0 0 0 0 0 0 0 0 0 255 0"/>
<feOffset dy="4"/>
<feGaussianBlur stdDeviation="2"/>
<feColorMatrix type="matrix" values="0 0 0 0 0.741176 0 0 0 0 0.741176 0 0 0 0 0.741176 0 0 0 0.25 0"/>
<feBlend mode="normal" in2="BackgroundImageFix" result="effect1_dropShadow"/>
<feBlend mode="normal" in="SourceGraphic" in2="effect1_dropShadow" result="shape"/>
</filter>
<filter id="filter1_d" x="165.113" y="42.3598" width="69.659" height="75.6274" filterUnits="userSpaceOnUse" color-interpolation-filters="sRGB">
<feFlood flood-opacity="0" result="BackgroundImageFix"/>
<feColorMatrix in="SourceAlpha" type="matrix" values="0 0 0 0 0 0 0 0 0 0 0 0 0 0 0 0 0 0 255 0"/>
<feOffset dx="4" dy="4"/>
<feGaussianBlur stdDeviation="2"/>
<feColorMatrix type="matrix" values="0 0 0 0 0.741176 0 0 0 0 0.741176 0 0 0 0 0.741176 0 0 0 1 0"/>
<feBlend mode="normal" in2="BackgroundImageFix" result="effect1_dropShadow"/>
<feBlend mode="normal" in="SourceGraphic" in2="effect1_dropShadow" result="shape"/>
</filter>
<filter id="filter2_d" x="111.232" y="55.944" width="64.232" height="69.416" filterUnits="userSpaceOnUse" color-interpolation-filters="sRGB">
<feFlood flood-opacity="0" result="BackgroundImageFix"/>
<feColorMatrix in="SourceAlpha" type="matrix" values="0 0 0 0 0 0 0 0 0 0 0 0 0 0 0 0 0 0 255 0"/>
<feOffset dx="4" dy="4"/>
<feGaussianBlur stdDeviation="2"/>
<feColorMatrix type="matrix" values="0 0 0 0 0.741176 0 0 0 0 0.741176 0 0 0 0 0.741176 0 0 0 1 0"/>
<feBlend mode="normal" in2="BackgroundImageFix" result="effect1_dropShadow"/>
<feBlend mode="normal" in="SourceGraphic" in2="effect1_dropShadow" result="shape"/>
</filter>
<filter id="filter3_d" x="23.5789" y="25.053" width="95.7589" height="94.4851" filterUnits="userSpaceOnUse" color-interpolation-filters="sRGB">
<feFlood flood-opacity="0" result="BackgroundImageFix"/>
<feColorMatrix in="SourceAlpha" type="matrix" values="0 0 0 0 0 0 0 0 0 0 0 0 0 0 0 0 0 0 255 0"/>
<feOffset dx="4" dy="4"/>
<feGaussianBlur stdDeviation="2"/>
<feColorMatrix type="matrix" values="0 0 0 0 0.741176 0 0 0 0 0.741176 0 0 0 0 0.741176 0 0 0 1 0"/>
<feBlend mode="normal" in2="BackgroundImageFix" result="effect1_dropShadow"/>
<feBlend mode="normal" in="SourceGraphic" in2="effect1_dropShadow" result="shape"/>
</filter>
</defs>
</svg>
