<?xml version="1.0" standalone="no"?>
<!DOCTYPE svg PUBLIC "-//W3C//DTD SVG 20010904//EN"
 "http://www.w3.org/TR/2001/REC-SVG-20010904/DTD/svg10.dtd">
<svg version="1.0" xmlns="http://www.w3.org/2000/svg"
 width="944.000000pt" height="944.000000pt" viewBox="0 0 944.000000 944.000000"
 preserveAspectRatio="xMidYMid meet">
<metadata>
Created by potrace 1.11, written by Peter Selinger 2001-2013
</metadata>
<g transform="translate(0.000000,944.000000) scale(0.100000,-0.100000)"
fill="#000000" stroke="none">
<path d="M4443 7820 c-100 -21 -184 -53 -268 -101 -106 -61 -165 -111 -236
-199 -48 -60 -129 -208 -129 -236 0 -7 -5 -14 -10 -16 -6 -2 -17 -37 -26 -78
-24 -114 -9 -343 26 -370 3 -3 14 -27 24 -55 31 -85 107 -197 188 -277 43 -43
84 -78 90 -78 6 0 19 -6 27 -14 32 -27 128 -74 203 -100 238 -80 434 -53 688
95 14 7 58 40 99 72 60 46 76 55 88 45 9 -7 17 -8 21 -2 4 5 35 10 69 9 56 0
61 2 59 20 -3 28 -15 47 -27 40 -5 -4 -9 1 -9 9 0 8 -9 18 -20 21 -11 3 -20
15 -20 25 0 20 39 111 52 120 3 3 22 50 40 105 32 95 33 105 26 190 -4 50 -12
119 -18 155 -8 46 -8 66 -1 68 20 7 11 37 -16 57 -14 11 -53 61 -86 110 -56
85 -143 196 -159 203 -5 2 -8 10 -8 18 0 8 -6 14 -14 14 -8 0 -16 4 -18 9 -5
14 -197 98 -278 121 -84 24 -285 35 -357 20z m261 -101 c42 -5 101 -18 130
-28 66 -22 194 -94 246 -138 48 -41 120 -148 120 -177 0 -17 -2 -18 -10 -6 -5
8 -10 12 -10 7 0 -15 -52 27 -61 50 -9 23 -9 24 -156 21 l-148 -3 -3 -55 c-2
-30 -7 -59 -13 -64 -6 -6 -9 -5 -9 5 0 7 -14 25 -30 38 -18 13 -30 33 -30 46
0 27 -17 35 -75 35 l-43 0 -7 -50 c-4 -27 -8 -50 -10 -50 -19 0 -39 20 -56 57
-20 44 -20 44 -67 41 -45 -3 -47 -4 -50 -35 -2 -18 -7 -33 -11 -33 -19 0 -72
33 -82 51 -9 18 -20 19 -157 17 l-147 -3 0 -50 0 -50 50 -5 50 -5 5 -370 5
-370 44 -3 c24 -2 48 1 54 7 17 17 22 105 18 301 -2 94 -3 253 -2 354 0 26 10
33 22 16 7 -13 10 -13 18 -1 5 7 14 10 20 7 6 -4 11 -2 11 3 0 6 3 10 8 9 4
-1 19 2 35 6 57 17 57 16 57 -354 0 -374 -5 -350 66 -350 56 0 76 15 69 53 -3
18 -1 46 4 62 5 17 10 24 10 17 1 -7 5 -11 11 -7 9 6 2 36 -11 45 -15 11 -15
95 1 85 14 -8 13 28 -1 42 -6 6 -8 21 -4 33 6 18 9 20 16 9 6 -10 9 -8 9 9 0
14 -4 21 -11 16 -8 -5 -9 6 -4 36 5 31 4 45 -6 51 -10 6 -8 9 9 9 l22 0 0
-224 c0 -124 4 -227 9 -230 5 -3 39 -6 77 -7 38 -1 81 -5 96 -10 16 -4 26 -4
24 -1 -9 14 88 12 147 -4 33 -8 66 -13 73 -10 7 3 16 1 19 -5 4 -5 11 -7 16
-4 5 4 9 -2 9 -11 0 -19 -28 -54 -43 -54 -6 0 -24 -11 -41 -24 -46 -35 -102
-61 -186 -87 -64 -20 -96 -24 -215 -24 -186 1 -296 31 -425 119 -25 17 -47 29
-49 27 -12 -11 -132 136 -167 206 -59 114 -77 194 -76 338 0 244 93 438 262
549 183 121 347 157 574 125z m513 -404 c21 -7 44 -64 59 -148 28 -160 -14
-391 -89 -491 -14 -19 -15 -19 -49 7 -19 15 -42 27 -51 27 -26 0 -37 33 -35
106 1 38 -1 75 -5 82 -5 7 -3 12 3 12 6 0 15 11 20 25 5 14 15 25 22 26 7 1
22 2 33 3 11 1 39 3 63 4 35 2 42 5 42 23 0 11 5 17 10 14 6 -3 10 -1 10 4 0
6 -7 11 -15 11 -8 0 -15 4 -15 9 0 5 -8 11 -17 15 -10 3 -43 22 -73 41 -30 19
-63 38 -73 41 -18 7 -19 34 -2 46 6 5 5 8 -2 8 -8 0 -13 13 -13 30 0 24 -4 30
-21 30 -12 0 -18 4 -13 11 3 6 1 14 -5 18 -16 10 -2 41 23 51 19 7 165 3 193
-5z m-623 -121 c3 -8 2 -12 -4 -9 -6 3 -10 10 -10 16 0 14 7 11 14 -7z"/>
<path d="M4565 6120 l-2840 -5 -3 -111 -3 -112 173 -7 c95 -4 211 -7 257 -8
60 -1 85 -5 89 -15 2 -8 8 -9 11 -4 9 14 91 24 91 11 0 -7 7 -8 18 -4 9 3 98
6 197 5 99 -1 203 -1 230 0 28 1 59 2 70 2 129 2 723 -10 732 -15 7 -4 40 -3
75 2 64 9 607 9 624 -1 5 -3 25 -3 44 -1 78 10 849 12 855 2 4 -5 11 -7 16 -4
5 3 91 6 191 5 101 -1 190 -1 198 -1 298 0 1889 13 1898 16 24 8 13 51 -22 79
-32 25 -35 32 -41 101 -4 41 -10 74 -14 73 -3 -2 -1284 -5 -2846 -8z"/>
<path d="M2125 5667 c-68 -18 -152 -64 -196 -109 -54 -56 -97 -152 -110 -244
-6 -52 -9 -428 -7 -1099 3 -898 6 -1026 20 -1071 22 -73 64 -146 107 -187 43
-43 162 -107 197 -107 14 0 23 -4 20 -9 -3 -4 6 -6 21 -3 19 4 30 -1 43 -18
16 -21 28 -24 110 -28 54 -3 95 -1 99 5 8 12 65 27 57 15 -3 -5 2 -9 10 -9 19
0 37 44 30 71 -3 11 2 28 11 38 15 17 15 18 0 18 -19 0 -22 15 -5 26 7 4 8 3
4 -4 -12 -20 8 -13 38 13 16 14 34 25 40 25 6 1 25 21 41 46 47 71 55 89 45
92 -14 5 -12 60 1 64 19 6 14 194 -6 251 -17 51 -35 186 -35 275 l0 52 -177
-2 -178 -3 -5 -293 c-5 -320 -4 -315 -64 -310 -24 3 -31 10 -42 42 -12 34 -12
37 1 26 8 -7 15 -8 15 -2 0 5 -6 15 -14 21 -19 16 -20 120 -2 135 18 14 29 63
16 71 -5 3 -10 19 -10 35 0 15 -6 31 -12 33 -8 3 -6 6 5 6 18 1 25 31 7 31 -7
0 -7 6 -1 18 13 25 6 335 -8 340 -7 2 -11 39 -11 103 0 59 4 98 9 94 5 -3 8
-31 6 -63 -2 -31 -1 -46 1 -32 3 14 10 30 14 35 11 14 -3 91 -15 85 -6 -3 -11
9 -12 25 -2 25 -1 27 7 10 7 -17 9 -15 9 13 1 17 -3 32 -9 32 -6 0 -10 47 -10
121 0 67 4 118 9 115 5 -3 11 7 14 22 3 15 1 29 -3 32 -13 8 -22 170 -10 170
6 0 10 23 10 50 0 28 -4 50 -8 50 -5 0 -9 20 -9 44 0 35 3 43 15 38 12 -4 14
-1 9 12 -4 10 -7 25 -8 34 -1 10 -4 7 -9 -8 -8 -24 -8 -23 -9 8 -1 18 3 31 7
28 5 -3 9 8 9 24 0 17 -4 30 -9 30 -4 0 -8 9 -8 21 0 11 5 17 10 14 6 -3 10 1
10 10 0 9 -4 13 -10 10 -6 -4 -10 26 -10 84 0 49 5 93 10 96 6 3 10 13 10 21
0 8 -4 12 -10 9 -6 -4 -10 13 -10 43 0 47 20 82 46 82 24 0 65 -27 70 -45 2
-11 3 -138 2 -282 -2 -212 0 -264 10 -268 8 -3 53 -5 102 -5 88 0 236 -16 254
-28 6 -3 19 -6 31 -7 17 0 22 6 24 35 2 19 3 42 2 50 -1 8 -1 62 1 120 6 275
4 327 -15 348 -10 11 -15 26 -11 35 3 9 -1 24 -10 32 -9 9 -16 27 -16 41 0 14
-12 35 -30 50 -16 15 -32 35 -36 46 -3 10 -10 16 -15 13 -5 -4 -9 0 -9 8 0 26
-98 105 -158 127 -71 27 -224 36 -297 17z m62 -929 c-3 -8 -6 -5 -6 6 -1 11 2
17 5 13 3 -3 4 -12 1 -19z m0 -980 c-3 -8 -6 -5 -6 6 -1 11 2 17 5 13 3 -3 4
-12 1 -19z m0 -100 c-3 -8 -6 -5 -6 6 -1 11 2 17 5 13 3 -3 4 -12 1 -19z"/>
<path d="M2923 5662 l-173 -2 -2 -1393 c-2 -919 0 -1394 7 -1399 6 -4 49 -8
98 -8 51 0 87 -4 87 -10 0 -5 14 -10 30 -10 17 0 30 -5 30 -10 0 -6 11 -8 26
-4 17 4 29 2 34 -6 5 -8 19 -14 32 -15 12 -1 35 -5 51 -10 20 -5 27 -4 28 6 0
19 7 142 8 154 2 30 -12 154 -20 182 -7 23 -7 38 2 54 9 18 9 25 -2 33 -8 6
-13 27 -13 46 1 19 -2 42 -6 50 -4 8 -10 38 -14 67 -6 48 -5 51 14 46 29 -8
25 4 -7 21 -16 8 -22 15 -15 16 9 0 11 10 6 35 -4 22 -2 41 6 50 10 12 10 18
1 29 -14 16 -24 109 -12 102 5 -3 13 6 20 20 14 32 14 34 -2 28 -11 -4 -14 10
-13 61 1 36 4 65 7 65 9 0 17 59 8 62 -4 2 -9 50 -10 108 -4 115 -7 109 59 95
21 -5 32 -4 32 4 0 6 5 11 10 11 7 0 10 -206 8 -640 l-3 -640 78 0 c45 0 77
-4 77 -10 0 -5 12 -10 26 -10 15 0 44 -5 66 -12 31 -9 44 -9 60 1 18 11 19 10
13 -11 -4 -14 -3 -18 2 -11 6 8 27 12 54 10 35 -1 43 1 40 13 -10 40 -12 228
-2 235 18 11 12 25 -10 25 -16 0 -19 3 -11 13 15 19 22 63 27 169 3 85 2 98
-16 114 -22 20 -25 34 -6 34 9 0 14 12 15 30 0 17 -4 30 -9 30 -5 0 -9 9 -9
20 0 13 5 18 15 14 8 -4 15 -2 15 4 0 5 -10 13 -22 16 -20 6 -21 8 -7 19 19
15 38 87 29 107 -24 49 -28 80 -13 89 11 6 12 10 4 16 -9 5 -8 11 3 24 13 15
15 45 11 202 -2 101 -4 200 -5 221 0 20 -7 42 -15 48 -11 9 -12 16 -5 25 5 6
12 53 15 104 2 50 7 96 10 101 4 6 0 13 -7 15 -11 5 -14 36 -11 158 4 166 6
194 15 203 4 3 0 21 -8 40 -8 19 -10 34 -5 34 5 0 8 32 8 70 -1 39 -5 70 -9
70 -4 0 -8 7 -8 15 0 8 6 15 13 15 8 0 7 4 -3 10 -8 5 -10 10 -5 10 6 0 11 23
11 54 0 33 -4 52 -11 50 -6 -3 -9 12 -7 41 2 25 -1 59 -8 75 -9 21 -9 34 -2
43 7 8 6 17 -3 30 -13 18 -13 18 -17 0 -3 -10 -5 5 -6 32 -3 91 -13 200 -20
205 -4 3 -82 4 -174 2 l-168 -3 0 -604 0 -605 -67 1 c-38 0 -63 2 -58 4 99 29
98 29 75 37 -16 6 -20 13 -15 26 8 19 7 180 0 193 -3 4 -1 10 3 13 5 3 7 27 6
55 -3 37 1 51 13 55 12 5 13 9 3 21 -9 10 -9 15 -1 15 16 0 14 29 -4 46 -11
11 -15 37 -14 96 1 67 -2 82 -18 93 -25 18 -21 97 5 88 15 -6 15 -4 0 14 -10
11 -18 29 -18 42 0 12 -7 24 -15 27 -16 7 -15 41 4 102 6 19 6 41 2 50 -21 42
-31 94 -31 160 0 39 -3 72 -7 74 -5 2 -86 2 -180 0z m724 -2034 c-3 -8 -6 -5
-6 6 -1 11 2 17 5 13 3 -3 4 -12 1 -19z"/>
<path d="M3995 5660 c-138 -34 -263 -158 -296 -293 -10 -40 -13 -325 -15
-1262 0 -665 -3 -1217 -5 -1225 -3 -12 13 -16 91 -20 59 -3 84 -7 65 -11 -23
-5 -18 -6 22 -8 28 0 54 -5 57 -10 3 -4 16 -6 30 -4 13 3 32 0 43 -5 12 -7 25
-7 36 -1 9 6 17 6 17 1 0 -4 20 -9 45 -11 42 -2 45 0 45 24 0 14 -7 28 -16 32
-11 4 -12 8 -4 13 9 6 8 14 -5 34 -17 25 -16 26 1 26 17 0 19 8 19 73 0 61 -3
76 -22 96 -26 28 -22 41 13 41 19 0 24 5 24 24 0 14 -5 28 -11 31 -6 4 -8 14
-4 23 3 8 2 18 -3 21 -5 3 -6 33 -2 66 5 45 3 66 -7 82 -9 13 -11 28 -7 35 5
7 9 18 10 23 1 6 5 18 9 27 5 12 2 20 -9 24 -20 8 -21 44 -1 44 21 0 19 27 -2
39 -12 7 -14 13 -7 18 6 5 14 18 18 31 4 12 13 22 20 22 7 0 18 10 24 23 8 16
11 -85 11 -398 l0 -420 92 -3 c52 -2 96 -7 99 -12 3 -5 32 -11 64 -12 31 -1
60 -6 63 -11 2 -4 11 -3 19 4 10 8 14 8 14 0 0 -6 5 -11 10 -11 6 0 10 7 10
16 0 14 1 14 16 0 8 -9 19 -16 23 -16 8 0 8 112 1 135 -2 6 0 23 5 38 5 21 3
33 -10 47 -17 18 -17 22 -2 38 20 23 19 92 -2 92 -14 1 -13 3 2 14 12 9 17 27
17 63 0 27 3 53 8 57 10 10 12 36 16 216 3 119 1 161 -10 182 -15 30 -18 49
-6 46 9 -4 12 5 12 33 0 18 -2 19 -15 9 -13 -11 -15 -8 -15 18 0 20 5 30 13
28 6 -1 9 -1 5 1 -12 7 -10 43 2 43 12 0 10 69 -3 77 -5 3 -4 9 3 13 15 9 15
112 1 189 -7 35 -7 60 -1 72 16 29 13 69 -5 63 -9 -4 -15 0 -15 10 0 9 7 16
15 16 12 0 15 10 13 40 -1 22 -5 40 -8 40 -12 0 -9 111 3 132 9 16 9 22 0 25
-7 3 -13 12 -13 20 0 9 6 13 15 9 9 -3 15 0 15 9 0 9 -6 12 -15 9 -16 -7 -19
11 -14 76 3 46 3 49 -4 236 -4 91 -3 174 2 190 13 40 20 175 10 168 -5 -3 -9
11 -9 30 0 19 -4 38 -10 41 -5 3 -10 15 -10 26 0 10 -7 19 -15 19 -8 0 -12 6
-9 13 2 7 -3 22 -13 32 -10 11 -34 41 -53 67 -42 55 -139 124 -212 149 -56 19
-222 25 -283 9z m164 -306 c21 -26 21 -34 21 -690 l0 -664 -67 1 c-47 0 -62 3
-48 9 11 5 29 9 40 9 18 1 21 7 18 49 -1 26 -3 49 -4 52 -1 3 0 10 1 15 1 6 2
85 2 178 1 114 4 167 12 167 6 0 3 5 -7 11 -14 8 -17 18 -13 37 5 20 4 23 -4
12 -8 -13 -10 -13 -10 2 0 9 4 18 9 20 5 2 11 21 12 43 2 22 8 43 13 47 6 4 6
11 -1 20 -17 20 -26 77 -15 91 6 7 9 62 7 127 -2 65 2 129 8 148 10 29 9 34
-15 54 -25 20 -26 23 -13 48 13 24 12 33 -7 81 -11 30 -20 65 -19 78 0 13 -4
30 -9 36 -8 9 -6 18 5 29 24 24 61 20 84 -10z"/>
<path d="M4131 4264 c0 -11 3 -14 6 -6 3 7 2 16 -1 19 -3 4 -6 -2 -5 -13z"/>
<path d="M5882 5650 c-30 -10 -76 -36 -104 -57 -48 -37 -128 -142 -128 -168 0
-7 -5 -15 -11 -17 -5 -2 -14 -21 -19 -43 -6 -23 -10 -490 -10 -1105 0 -879 3
-1074 14 -1115 8 -27 15 -45 15 -40 1 6 14 -17 30 -51 16 -33 43 -77 60 -97
48 -54 163 -113 238 -120 17 -2 39 -10 48 -17 21 -18 195 -23 195 -7 0 7 7 3
15 -7 14 -18 16 -18 33 -3 10 9 24 17 30 17 7 0 12 8 12 18 1 16 1 16 11 -1
10 -17 13 -15 44 17 18 19 35 32 39 29 3 -4 6 1 6 10 0 10 -6 17 -12 17 -10 0
-10 2 -1 8 6 4 15 21 19 37 4 17 18 41 31 55 14 13 20 26 15 28 -5 1 -7 12 -5
23 5 16 8 18 15 7 7 -9 8 -5 5 14 -2 15 -1 25 3 23 17 -10 28 24 29 87 0 37 2
71 2 75 1 4 -1 16 -6 26 -4 10 -1 26 7 40 10 15 12 33 7 57 -5 21 -3 37 3 41
6 4 5 8 -3 11 -12 4 -12 7 -1 21 8 9 10 22 6 29 -14 23 -17 138 -3 154 8 9 9
18 3 22 -12 9 -12 165 0 174 6 4 10 36 10 72 0 44 4 66 12 66 6 0 12 12 12 28
0 35 -8 48 -19 31 -6 -9 -9 -1 -9 24 0 24 5 40 15 43 19 8 20 24 2 24 -8 0
-20 18 -27 40 -7 22 -17 40 -22 40 -4 0 -8 7 -8 16 0 8 -7 22 -15 30 -9 9 -15
34 -15 62 0 26 -4 52 -8 57 -4 6 -86 9 -219 7 l-213 -3 0 -136 c0 -75 -2 -134
-5 -131 -8 7 -17 257 -10 279 4 12 16 19 33 19 19 0 23 3 13 9 -15 9 -24 118
-10 126 4 3 4 20 0 37 -8 36 -6 94 5 146 5 26 2 36 -12 48 -18 13 -18 15 -1
25 14 8 16 19 11 67 -3 31 -10 62 -15 69 -7 8 -5 14 7 21 10 6 14 14 9 22 -4
7 -9 53 -11 104 -3 109 -4 118 -16 132 -4 6 -6 19 -2 28 6 17 -13 49 -25 42
-3 -2 -5 13 -3 34 4 43 32 63 69 49 39 -14 45 -64 41 -336 l-3 -251 130 -8
c72 -5 145 -8 163 -7 17 0 32 -4 32 -9 0 -6 6 -6 14 1 11 10 17 8 25 -6 6 -10
11 -12 11 -5 0 6 12 12 26 12 24 0 26 3 22 40 -2 22 -1 40 3 40 10 0 6 54 -4
61 -5 4 -5 15 1 25 5 11 8 33 5 49 -8 56 -9 97 -2 154 3 31 2 83 -3 116 -5 33
-11 74 -13 90 -2 17 -8 41 -14 55 -8 22 -10 22 -11 5 -1 -15 -4 -12 -11 10 -6
17 -12 37 -13 45 -2 8 -9 14 -15 12 -6 -1 -11 4 -11 12 0 24 -111 125 -166
151 -72 34 -125 45 -229 44 -63 0 -106 -5 -143 -19z m203 -2016 c0 -421 -1
-443 -19 -463 -20 -22 -56 -29 -56 -11 0 6 4 10 9 10 10 0 5 49 -9 93 -6 16
-5 27 1 27 5 0 9 32 9 71 0 44 4 68 10 64 6 -3 10 -2 10 4 0 5 -4 13 -10 16
-13 8 -13 54 1 93 8 24 7 37 -6 61 -10 20 -13 37 -7 46 10 19 3 85 -10 85 -5
0 -6 6 -1 13 11 17 12 36 4 42 -8 4 -6 165 2 195 2 8 8 34 12 58 7 39 10 43
34 40 l26 -3 0 -441z"/>
<path d="M6945 5660 l-370 -5 0 -1395 0 -1395 115 -3 c63 -2 122 -6 130 -9 8
-3 19 -5 24 -4 4 1 13 -3 20 -8 7 -6 63 -11 126 -12 63 -2 118 -4 122 -6 14
-7 283 -10 307 -4 21 6 22 8 7 20 -9 7 -16 24 -16 37 0 13 -4 24 -10 24 -5 0
-7 6 -4 14 3 8 -6 31 -20 53 -24 37 -43 98 -48 158 l-3 30 -195 5 c-133 4
-185 8 -163 14 l31 8 -4 102 c-2 55 -6 126 -8 156 -2 33 1 58 8 63 8 6 7 10
-1 14 -16 6 -17 84 -2 153 8 37 8 54 -1 64 -7 10 -8 16 -1 20 6 4 7 15 2 29
-5 13 -4 47 2 80 8 46 8 63 -3 80 -9 15 -10 22 -1 25 15 5 14 27 -3 41 -8 7
-14 27 -14 45 0 44 -11 78 -23 71 -5 -4 -9 -2 -9 4 0 6 19 9 48 6 26 -2 95 -6
154 -9 59 -2 111 -7 115 -9 18 -11 37 13 40 47 1 20 -2 36 -7 36 -4 0 -6 18
-3 40 4 30 0 51 -18 85 -13 25 -27 45 -31 45 -3 0 -9 18 -13 40 l-7 40 -139 0
c-76 0 -139 2 -139 5 0 3 11 16 24 28 29 26 44 67 24 67 -10 0 -10 2 -1 8 15
9 18 76 8 163 -5 45 -4 69 4 73 7 5 8 13 2 24 -4 9 -7 82 -6 162 1 80 -2 152
-6 161 -4 8 -4 21 1 29 5 8 5 19 1 25 -13 15 -23 138 -13 153 7 10 47 12 180
10 94 -3 175 -7 178 -11 8 -8 55 2 68 14 5 5 4 14 -3 23 -6 7 -14 37 -18 65
-3 28 -9 51 -12 51 -16 0 -41 62 -41 102 0 23 -4 48 -8 53 -4 7 -136 8 -377 5z"/>
<path d="M4650 4283 c0 -758 -3 -1388 -6 -1400 -6 -23 -5 -23 85 -23 62 0 91
-4 91 -11 0 -9 22 -10 76 -6 57 4 74 3 65 -6 -22 -22 -11 -30 35 -24 59 6 95
38 76 67 -15 25 -15 25 3 43 11 12 12 22 4 51 -6 21 -7 68 -4 109 7 66 16 264
16 312 -1 21 0 80 1 105 0 8 -2 35 -5 60 -3 24 -2 51 3 60 5 9 5 22 1 29 -5 7
-5 30 -1 52 4 22 4 42 0 44 -9 5 -4 80 5 96 4 5 2 9 -4 9 -12 0 -11 61 2 78 6
8 6 12 -2 12 -6 0 -11 9 -11 19 0 15 7 19 31 19 17 -1 33 -6 35 -12 2 -6 5
-245 6 -531 3 -376 7 -528 16 -547 11 -27 13 -28 96 -28 47 0 96 -4 111 -10
34 -13 191 -18 202 -6 4 5 2 11 -4 13 -9 3 -11 17 -7 44 4 26 3 39 -5 39 -19
0 -13 78 7 89 15 10 15 11 -6 17 -15 4 -21 12 -17 22 3 8 0 21 -6 28 -7 9 -9
28 -5 52 4 20 9 69 11 107 3 39 7 93 9 120 2 28 0 55 -5 61 -6 7 -5 32 2 64 9
42 9 54 -2 60 -19 12 -18 48 2 66 10 9 16 20 14 25 -3 4 -1 10 5 14 6 4 5 13
-2 25 -9 14 -9 25 0 45 7 14 12 69 12 124 0 79 -3 102 -17 119 -10 11 -28 34
-40 49 -12 15 -31 39 -42 52 -25 28 -27 66 -6 87 8 9 15 24 15 35 0 10 6 18
13 16 6 -1 11 5 9 14 -1 9 4 35 13 58 8 23 12 48 9 56 -4 9 1 18 11 21 11 5
15 14 11 28 -10 41 -3 536 8 554 3 6 1 12 -5 14 -15 5 -21 58 -7 58 6 0 7 8 3
18 -10 26 -14 82 -6 82 22 0 41 143 21 155 -5 3 -10 22 -10 41 0 19 -5 34 -11
34 -5 0 -8 4 -4 9 6 11 -13 58 -37 86 -9 11 -33 40 -53 65 -47 57 -99 92 -178
121 -58 21 -81 23 -344 27 l-283 3 0 -1378z m468 1061 l22 -14 0 -435 c0 -260
-4 -444 -10 -460 -12 -32 -49 -47 -87 -35 -25 7 -26 8 -5 9 13 1 32 6 43 11
18 10 18 12 3 35 -9 14 -12 25 -6 25 7 0 8 21 4 58 -3 31 -5 71 -4 87 0 17 1
45 1 64 0 18 8 42 18 53 16 18 16 19 -5 25 -13 3 -19 10 -15 16 4 6 6 24 5 40
-2 16 3 36 9 43 8 10 8 18 1 27 -5 6 -10 64 -11 127 0 63 -5 138 -12 165 -6
28 -12 66 -13 85 -1 27 -6 34 -19 32 -9 -2 -17 2 -17 8 0 5 5 10 11 10 6 0 9
9 6 19 -4 16 0 20 27 19 17 0 41 -7 54 -14z"/>
<path d="M3620 5501 c0 -5 5 -13 10 -16 6 -3 10 -2 10 4 0 5 -4 13 -10 16 -5
3 -10 2 -10 -4z"/>
<path d="M2196 4397 c3 -10 9 -15 12 -12 3 3 0 11 -7 18 -10 9 -11 8 -5 -6z"/>
<path d="M2190 3949 c0 -18 2 -19 15 -9 15 12 12 30 -6 30 -5 0 -9 -10 -9 -21z"/>
<path d="M2600 2969 c0 -5 5 -7 10 -4 6 3 10 8 10 11 0 2 -4 4 -10 4 -5 0 -10
-5 -10 -11z"/>
<path d="M4565 2630 l-2840 -5 -3 -111 -3 -112 73 -6 c40 -3 269 -7 510 -8
240 -2 435 -5 433 -8 -2 -3 0 -12 6 -20 6 -10 9 -11 9 -2 0 6 6 12 14 12 8 0
16 6 19 13 3 8 10 5 22 -10 15 -22 65 -33 65 -14 0 4 35 8 77 7 51 -1 81 3 90
12 12 12 17 8 14 -10 0 -5 6 -8 14 -8 8 0 14 6 12 13 -3 18 284 21 298 2 15
-19 102 -25 90 -6 -9 16 15 24 31 10 9 -7 40 -12 72 -11 34 0 60 -4 64 -11 6
-9 10 -8 17 3 7 9 6 17 -1 21 -6 4 55 6 135 6 81 -1 147 -5 147 -9 0 -5 16 -8
35 -8 19 0 35 4 35 8 0 5 25 9 55 9 30 0 52 -4 49 -8 -3 -5 6 -9 20 -9 13 0
27 6 29 13 4 9 6 9 6 0 1 -15 41 -18 41 -3 0 6 16 10 35 10 19 0 35 -4 35 -10
0 -9 52 -6 69 4 12 8 42 -4 36 -14 -3 -5 -1 -11 4 -14 5 -3 11 3 14 14 5 20
27 28 27 10 0 -5 18 -10 41 -10 22 0 38 3 36 8 -3 4 19 7 49 7 50 0 55 -2 68
-30 l15 -29 18 32 c17 30 21 32 76 32 32 0 67 -5 78 -10 28 -16 169 -22 169
-8 0 10 102 4 136 -9 9 -3 14 1 14 13 0 14 2 16 9 6 4 -7 21 -12 37 -10 20 2
28 -1 26 -11 -2 -9 3 -11 15 -7 38 15 76 19 69 8 -3 -6 -2 -13 3 -17 5 -3 14
1 18 10 10 17 4 16 210 13 83 -2 155 -6 159 -10 3 -4 14 -4 23 1 9 5 35 11 58
15 23 3 49 9 59 13 12 4 15 3 10 -5 -9 -15 -3 -15 118 -12 71 2 97 -1 92 -9
-4 -6 -3 -11 3 -11 5 0 13 5 17 11 3 6 17 8 30 5 14 -4 37 0 53 9 23 11 31 12
34 2 4 -9 6 -9 6 1 1 7 15 12 39 11 30 0 33 -2 17 -9 -16 -7 -17 -9 -3 -9 9
-1 19 3 22 8 9 14 229 12 238 -2 6 -9 8 -9 8 1 0 17 167 17 172 0 5 -14 187
-25 215 -13 27 12 203 14 203 2 0 -6 18 -7 48 -2 26 4 73 7 105 6 33 -1 57 3
57 9 0 5 14 10 30 10 17 0 30 -4 30 -10 0 -14 73 -13 105 2 l25 11 -26 18
c-16 10 -22 19 -15 23 7 5 8 13 2 24 -5 10 -12 54 -16 100 -4 45 -10 81 -14
80 -3 -2 -1284 -5 -2846 -8z m-1637 -247 c-10 -2 -26 -2 -35 0 -10 3 -2 5 17
5 19 0 27 -2 18 -5z m665 0 c-7 -2 -21 -2 -30 0 -10 3 -4 5 12 5 17 0 24 -2
18 -5z m1634 1 c-3 -3 -12 -4 -19 -1 -8 3 -5 6 6 6 11 1 17 -2 13 -5z m490 0
c-3 -3 -12 -4 -19 -1 -8 3 -5 6 6 6 11 1 17 -2 13 -5z m1670 0 c-3 -3 -12 -4
-19 -1 -8 3 -5 6 6 6 11 1 17 -2 13 -5z"/>
<path d="M3686 2365 c-7 -19 3 -19 28 0 19 15 19 15 -1 15 -11 0 -23 -7 -27
-15z"/>
<path d="M6528 2373 c7 -3 16 -2 19 1 4 3 -2 6 -13 5 -11 0 -14 -3 -6 -6z"/>
</g>
</svg>
